<svg width="18" height="18" viewBox="0 0 18 18" fill="none" xmlns="http://www.w3.org/2000/svg">
<path d="M13.25 10C12.5597 10 12 9.44035 12 8.75C12 8.05965 12.5597 7.5 13.25 7.5C13.9403 7.5 14.5 8.05965 14.5 8.75C14.5 9.44035 13.9403 10 13.25 10ZM7.75 8.75C7.75 9.44035 8.30965 10 9 10C9.69035 10 10.25 9.44035 10.25 8.75C10.25 8.05965 9.69035 7.5 9 7.5C8.30965 7.5 7.75 8.05965 7.75 8.75ZM4.75 10C4.05965 10 3.5 9.44035 3.5 8.75C3.5 8.05965 4.05965 7.5 4.75 7.5C5.44035 7.5 6 8.05965 6 8.75C6 9.44035 5.44035 10 4.75 10ZM12 12.75C12 13.4403 12.5597 14 13.25 14C13.9403 14 14.5 13.4403 14.5 12.75C14.5 12.0597 13.9403 11.5 13.25 11.5C12.5597 11.5 12 12.0597 12 12.75ZM9 14C8.30965 14 7.75 13.4403 7.75 12.75C7.75 12.0597 8.30965 11.5 9 11.5C9.69035 11.5 10.25 12.0597 10.25 12.75C10.25 13.4403 9.69035 14 9 14ZM18 3.125C18 1.39911 16.6009 0 14.875 0H3.125C1.39911 0 0 1.39911 0 3.125V14.875C0 16.6009 1.39911 18 3.125 18H14.875C16.6009 18 18 16.6009 18 14.875V3.125ZM14.875 1.25C15.9105 1.25 16.75 2.08945 16.75 3.125V4H1.25V3.125C1.25 2.08945 2.08945 1.25 3.125 1.25H14.875ZM16.75 14.875C16.75 15.9105 15.9105 16.75 14.875 16.75H3.125C2.08945 16.75 1.25 15.9105 1.25 14.875V5.25H16.75V14.875Z" fill="#212121"/>
</svg>
