<svg width="22" height="22" viewBox="0 0 22 22" fill="none" xmlns="http://www.w3.org/2000/svg">
<path d="M12.1694 11.8864C12.0681 11.8678 11.9637 11.858 11.8571 11.858L2.42852 11.8572L2.30064 11.8619C1.414 11.9274 0.714233 12.6682 0.714233 13.5714V15.7143L0.718605 15.9273C0.860848 19.3584 4.44389 20.4286 7.14281 20.4286C8.35823 20.4286 9.75281 20.2116 10.9317 19.6596C10.728 19.2882 10.5597 18.8945 10.4317 18.483C9.39923 18.9775 8.18946 19.104 7.51555 19.1341L7.14281 19.1429L6.8501 19.1382C5.58653 19.0982 4.39254 18.8006 3.53852 18.3072C2.50309 17.7106 1.99995 16.862 1.99995 15.7143V13.5714L2.00852 13.4849C2.03019 13.378 2.08806 13.3057 2.12509 13.268C2.1628 13.231 2.23563 13.1731 2.34224 13.1514L2.42852 13.1429L11.1319 13.1436C11.4238 12.6815 11.7729 12.2591 12.1694 11.8864ZM16.5714 10.1429C18.7014 10.1429 20.4285 8.41572 20.4285 6.28572C20.4285 4.15572 18.7014 2.42858 16.5714 2.42858C14.4414 2.42858 12.7142 4.15572 12.7142 6.28572C12.7142 8.41572 14.4414 10.1429 16.5714 10.1429ZM13.9999 6.28572C13.9999 4.86801 15.1537 3.71429 16.5714 3.71429C17.9891 3.71429 19.1428 4.86801 19.1428 6.28572C19.1428 7.70344 17.9891 8.85715 16.5714 8.85715C15.1537 8.85715 13.9999 7.70344 13.9999 6.28572ZM11.8571 5.42858C11.8571 2.82544 9.74681 0.714294 7.14281 0.714294C4.53881 0.714294 2.42852 2.82544 2.42852 5.42858C2.42852 8.03172 4.53881 10.1429 7.14281 10.1429C9.74681 10.1429 11.8571 8.03172 11.8571 5.42858ZM3.71423 5.42858C3.71423 3.53772 5.25195 2.00001 7.14281 2.00001C9.03366 2.00001 10.5714 3.53772 10.5714 5.42858C10.5714 7.31944 9.03366 8.85715 7.14281 8.85715C5.25195 8.85715 3.71423 7.31944 3.71423 5.42858ZM12.1614 15.4524C13.1056 15.2188 13.6665 14.2472 13.3967 13.3128L13.1098 12.3192C13.554 11.9277 14.0602 11.6102 14.6111 11.3848L15.3393 12.1512C16.015 12.8622 17.1484 12.8624 17.8243 12.1517L18.5473 11.3913C19.0991 11.6191 19.6058 11.9395 20.0498 12.3341L19.7719 13.2761C19.4942 14.2168 20.0611 15.1982 21.0147 15.4278L21.8523 15.6296C21.9025 15.9358 21.9285 16.2504 21.9285 16.5714C21.9285 16.8786 21.9046 17.18 21.8587 17.4737L20.9801 17.691C20.0359 17.9246 19.475 18.8962 19.7448 19.8306L20.0318 20.8248C19.5876 21.216 19.0813 21.5334 18.5305 21.7586L17.8021 20.9922C17.1265 20.2812 15.9931 20.281 15.3172 20.9917L14.5948 21.7514C14.043 21.5234 13.5361 21.2028 13.0921 20.808L13.3697 19.8673C13.6472 18.9266 13.0804 17.9452 12.1268 17.7156L11.2906 17.5141C11.2404 17.2077 11.2142 16.8928 11.2142 16.5714C11.2142 16.2643 11.2381 15.963 11.2841 15.6694L12.1614 15.4524ZM17.8571 16.5714C17.8571 15.8614 17.2814 15.2857 16.5714 15.2857C15.8613 15.2857 15.2857 15.8614 15.2857 16.5714C15.2857 17.2815 15.8613 17.8572 16.5714 17.8572C17.2814 17.8572 17.8571 17.2815 17.8571 16.5714Z" fill="#212121"/>
</svg>
