<?xml version="1.0" encoding="utf-8"?>
<!-- Generator: Adobe Illustrator 24.2.0, SVG Export Plug-In . SVG Version: 6.00 Build 0)  -->
<svg version="1.1" baseProfile="tiny" id="Layer_1" xmlns="http://www.w3.org/2000/svg" xmlns:xlink="http://www.w3.org/1999/xlink"
	 x="0px" y="0px" viewBox="0 0 100 100" overflow="visible" xml:space="preserve">
<polygon id="shaft_1_" fill="#372B47" stroke="#8C6542" stroke-width="0.25" stroke-linecap="round" stroke-linejoin="round" stroke-miterlimit="10" points="
	39.9,54.1 34.5,85.5 41.5,79.5 46.5,87.5 48.4,57.6 "/>
<polygon id="shaft" fill="#372B47" stroke="#8C6542" stroke-width="0.25" stroke-linecap="round" stroke-linejoin="round" stroke-miterlimit="10" points="
	58,54.1 63.4,85.5 56.5,78.5 51.4,87.5 49.5,57.6 "/>
<g id="medal">
	<circle fill="#BF9B7A" cx="49" cy="33" r="24.5"/>
	<path fill="#8C6542" d="M49,9c13.2,0,24,10.8,24,24S62.2,57,49,57S25,46.2,25,33S35.8,9,49,9 M49,8C35.2,8,24,19.2,24,33
		s11.2,25,25,25s25-11.2,25-25S62.8,8,49,8L49,8z"/>
</g>
<circle id="inner-ring" fill="none" stroke="#8C6542" stroke-width="0.5" stroke-miterlimit="10" cx="49" cy="33" r="20"/>
<g>
	<g>
		<path id="leaf_17_" fill="#8C6542" d="M33.7,30.2c-0.2,0-0.3-0.8-0.2-1.8c0.1-1,0.4-1.8,0.6-1.8c0.3,0,0.5,0.9,0.4,1.9
			C34.4,29.5,34,30.2,33.7,30.2z"/>
		<path id="shadow_17_" fill="#D9B68B" d="M33.7,30.2c-0.3,0-0.5-0.9-0.4-1.9c0.1-1,0.4-1.8,0.8-1.7c-0.2,0-0.5,0.8-0.6,1.8
			C33.4,29.4,33.5,30.2,33.7,30.2z"/>
	</g>
	<g>
		<path id="leaf_16_" fill="#8C6542" d="M33.1,33.6c-0.3,0-0.6-0.9-0.8-2.2c-0.2-1.2-0.1-2.3,0.1-2.3c0.4-0.1,0.9,0.9,1,2.1
			C33.7,32.5,33.5,33.6,33.1,33.6z"/>
		<path id="shadow_16_" fill="#D9B68B" d="M33.1,33.6c-0.4,0.1-0.9-0.9-1-2.1c-0.2-1.2,0-2.3,0.4-2.4c-0.3,0-0.3,1.1-0.1,2.3
			C32.5,32.7,32.8,33.7,33.1,33.6z"/>
	</g>
	<g>
		<path id="leaf_15_" fill="#8C6542" d="M33.6,34.9c-0.3-0.1-0.3-1.1,0-2.3c0.2-1.2,0.7-2.2,0.9-2.1c0.4,0.1,0.5,1.1,0.2,2.4
			C34.5,34,33.9,35,33.6,34.9z"/>
		<path id="shadow_15_" fill="#D9B68B" d="M33.6,34.9c-0.4-0.1-0.5-1.1-0.2-2.4c0.2-1.2,0.8-2.2,1.1-2.1c-0.3-0.1-0.7,0.9-0.9,2.1
			C33.3,33.8,33.3,34.8,33.6,34.9z"/>
	</g>
	<g>
		<path id="leaf_14_" fill="#8C6542" d="M34.5,38.9c-0.3,0.2-1.2-0.8-2.1-2.2c-0.8-1.4-1.3-2.7-1-2.9c0.4-0.3,1.5,0.7,2.3,2.1
			C34.6,37.3,34.9,38.6,34.5,38.9z"/>
		<path id="shadow_14_" fill="#D9B68B" d="M34.5,38.9c-0.4,0.3-1.5-0.7-2.3-2.1c-0.8-1.4-1.2-2.8-0.7-3c-0.3,0.2,0.2,1.5,1,2.9
			C33.3,38.1,34.2,39.1,34.5,38.9z"/>
	</g>
	<g>
		<path id="leaf_13_" fill="#8C6542" d="M35.7,40.2c-0.3,0.1-0.9-1.2-1.2-2.8c-0.3-1.6-0.3-3,0-3.1c0.5-0.1,1.2,1.1,1.5,2.8
			C36.3,38.7,36.2,40.1,35.7,40.2z"/>
		<path id="shadow_13_" fill="#D9B68B" d="M35.7,40.2c-0.5,0.1-1.2-1.1-1.5-2.8c-0.3-1.6-0.2-3,0.3-3.1c-0.3,0.1-0.4,1.4,0,3.1
			C34.8,39,35.3,40.2,35.7,40.2z"/>
	</g>
	<g>
		<path id="leaf_12_" fill="#8C6542" d="M37.9,44.4c-0.3,0.3-1.6-0.5-3-1.7c-1.4-1.2-2.4-2.5-2.1-2.8c0.4-0.4,1.9,0.2,3.3,1.4
			S38.3,43.9,37.9,44.4z"/>
		<path id="shadow_12_" fill="#D9B68B" d="M37.9,44.4c-0.4,0.4-1.9-0.2-3.3-1.4c-1.4-1.2-2.3-2.6-1.9-3c-0.3,0.3,0.7,1.5,2.1,2.8
			C36.3,43.9,37.7,44.7,37.9,44.4z"/>
	</g>
	<g>
		<path id="leaf_11_" fill="#8C6542" d="M39.6,45.4c-0.3,0.2-1.4-1-2.3-2.6c-0.9-1.6-1.4-3.1-1-3.3c0.5-0.3,1.7,0.8,2.6,2.5
			S40.2,45.1,39.6,45.4z"/>
		<path id="shadow_11_" fill="#D9B68B" d="M39.6,45.4c-0.5,0.3-1.7-0.8-2.6-2.5c-0.9-1.6-1.3-3.2-0.7-3.5c-0.3,0.2,0.1,1.7,1,3.3
			C38.3,44.4,39.3,45.6,39.6,45.4z"/>
	</g>
	<g>
		<path id="leaf_10_" fill="#8C6542" d="M43.8,48.5c-0.2,0.4-2,0.2-4-0.6s-3.6-1.7-3.5-2.2c0.2-0.6,2.1-0.6,4.2,0.2
			S44,47.8,43.8,48.5z"/>
		<path id="shadow_10_" fill="#D9B68B" d="M43.8,48.5c-0.2,0.6-2.1,0.6-4.2-0.2s-3.6-1.9-3.3-2.5c-0.2,0.4,1.4,1.4,3.5,2.2
			S43.6,48.9,43.8,48.5z"/>
	</g>
	<g>
		<path id="leaf_9_" fill="#8C6542" d="M46.1,48.8c-0.3,0.4-1.9-0.5-3.6-1.9s-2.8-2.9-2.5-3.2c0.4-0.5,2.2,0.2,3.9,1.6
			C45.5,46.7,46.5,48.3,46.1,48.8z"/>
		<path id="shadow_9_" fill="#D9B68B" d="M46.1,48.8c-0.4,0.5-2.2-0.2-3.9-1.6c-1.7-1.4-2.7-3-2.3-3.5c-0.3,0.4,0.8,1.8,2.5,3.2
			S45.8,49.2,46.1,48.8z"/>
	</g>
	<path id="stick_1_" fill="none" stroke="#8C6542" stroke-width="0.25" stroke-linecap="round" stroke-miterlimit="10" d="M50,52
		c-2-2-4-3-4-3"/>
</g>
<g>
	<g>
		<path id="leaf_18_" fill="#8C6542" d="M64.5,30.2c0.2,0,0.3-0.8,0.2-1.8c-0.1-1-0.4-1.8-0.6-1.8c-0.3,0-0.5,0.9-0.4,1.9
			S64.2,30.2,64.5,30.2z"/>
		<path id="shadow_18_" fill="#D9B68B" d="M64.5,30.2c0.3,0,0.5-0.9,0.4-1.9c-0.1-1-0.4-1.8-0.8-1.7c0.2,0,0.5,0.8,0.6,1.8
			C64.8,29.4,64.7,30.2,64.5,30.2z"/>
	</g>
	<g>
		<path id="leaf_8_" fill="#8C6542" d="M65.1,33.6c0.3,0,0.6-0.9,0.8-2.2s0.1-2.3-0.1-2.3c-0.4-0.1-0.9,0.9-1,2.1
			C64.6,32.5,64.7,33.6,65.1,33.6z"/>
		<path id="shadow_8_" fill="#D9B68B" d="M65.1,33.6c0.4,0.1,0.9-0.9,1-2.1c0.2-1.2,0-2.3-0.4-2.4c0.3,0,0.3,1.1,0.1,2.3
			S65.4,33.7,65.1,33.6z"/>
	</g>
	<g>
		<path id="leaf_7_" fill="#8C6542" d="M64.7,34.9c0.3-0.1,0.3-1.1,0-2.3c-0.2-1.2-0.7-2.2-0.9-2.1c-0.4,0.1-0.5,1.1-0.2,2.4
			C63.8,34,64.3,35,64.7,34.9z"/>
		<path id="shadow_7_" fill="#D9B68B" d="M64.7,34.9c0.4-0.1,0.5-1.1,0.2-2.4s-0.8-2.2-1.1-2.1c0.3-0.1,0.7,0.9,0.9,2.1
			C64.9,33.8,64.9,34.8,64.7,34.9z"/>
	</g>
	<g>
		<path id="leaf_6_" fill="#8C6542" d="M63.7,38.9c0.3,0.2,1.2-0.8,2.1-2.2c0.8-1.4,1.3-2.7,1-2.9c-0.4-0.3-1.5,0.7-2.3,2.1
			C63.6,37.3,63.3,38.6,63.7,38.9z"/>
		<path id="shadow_6_" fill="#D9B68B" d="M63.7,38.9c0.4,0.3,1.5-0.7,2.3-2.1c0.8-1.4,1.2-2.8,0.7-3c0.3,0.2-0.2,1.5-1,2.9
			C64.9,38.1,64,39.1,63.7,38.9z"/>
	</g>
	<g>
		<path id="leaf_5_" fill="#8C6542" d="M62.5,40.2c0.3,0.1,0.9-1.2,1.2-2.8c0.3-1.6,0.3-3,0-3.1c-0.5-0.1-1.2,1.1-1.5,2.8
			C61.9,38.7,62,40.1,62.5,40.2z"/>
		<path id="shadow_5_" fill="#D9B68B" d="M62.5,40.2c0.5,0.1,1.2-1.1,1.5-2.8c0.3-1.6,0.2-3-0.3-3.1c0.3,0.1,0.4,1.4,0,3.1
			C63.4,39,62.9,40.2,62.5,40.2z"/>
	</g>
	<g>
		<path id="leaf_4_" fill="#8C6542" d="M60.3,44.4c0.3,0.3,1.6-0.5,3-1.7c1.4-1.2,2.4-2.5,2.1-2.8c-0.4-0.4-1.9,0.2-3.3,1.4
			S59.9,43.9,60.3,44.4z"/>
		<path id="shadow_4_" fill="#D9B68B" d="M60.3,44.4c0.4,0.4,1.9-0.2,3.3-1.4c1.4-1.2,2.3-2.6,1.9-3c0.3,0.3-0.7,1.5-2.1,2.8
			C61.9,43.9,60.6,44.7,60.3,44.4z"/>
	</g>
	<g>
		<path id="leaf_3_" fill="#8C6542" d="M58.6,45.4c0.3,0.2,1.4-1,2.3-2.6c0.9-1.6,1.4-3.1,1-3.3c-0.5-0.3-1.7,0.8-2.6,2.5
			C58.4,43.5,58.1,45.1,58.6,45.4z"/>
		<path id="shadow_3_" fill="#D9B68B" d="M58.6,45.4c0.5,0.3,1.7-0.8,2.6-2.5c0.9-1.6,1.3-3.2,0.7-3.5c0.3,0.2-0.1,1.7-1,3.3
			C59.9,44.4,58.9,45.6,58.6,45.4z"/>
	</g>
	<g>
		<path id="leaf_2_" fill="#8C6542" d="M54.5,48.5c0.2,0.4,2,0.2,4-0.6c2.1-0.8,3.6-1.7,3.5-2.2c-0.2-0.6-2.1-0.6-4.2,0.2
			C55.7,46.7,54.2,47.8,54.5,48.5z"/>
		<path id="shadow_2_" fill="#D9B68B" d="M54.5,48.5c0.2,0.6,2.1,0.6,4.2-0.2c2.1-0.8,3.6-1.9,3.3-2.5c0.2,0.4-1.4,1.4-3.5,2.2
			C56.4,48.6,54.6,48.9,54.5,48.5z"/>
	</g>
	<g>
		<path id="leaf_1_" fill="#8C6542" d="M52.2,48.8c0.3,0.4,1.9-0.5,3.6-1.9c1.7-1.4,2.8-2.9,2.5-3.2c-0.4-0.5-2.2,0.2-3.9,1.6
			C52.7,46.7,51.7,48.3,52.2,48.8z"/>
		<path id="shadow_1_" fill="#D9B68B" d="M52.2,48.8c0.4,0.5,2.2-0.2,3.9-1.6s2.7-3,2.3-3.5c0.3,0.4-0.8,1.8-2.5,3.2
			C54.1,48.3,52.4,49.2,52.2,48.8z"/>
	</g>
	<path id="stick_2_" fill="none" stroke="#8C6542" stroke-width="0.25" stroke-linecap="round" stroke-miterlimit="10" d="M48.2,52
		c2-2,4-3,4-3"/>
</g>
</svg>
