<?xml version="1.0" encoding="utf-8"?>
<!-- Generator: Adobe Illustrator 24.2.0, SVG Export Plug-In . SVG Version: 6.00 Build 0)  -->
<svg version="1.2" baseProfile="tiny" xmlns="http://www.w3.org/2000/svg" xmlns:xlink="http://www.w3.org/1999/xlink" x="0px"
	 y="0px" viewBox="0 0 1980 1080" overflow="visible" xml:space="preserve">
<g id="Layer_1">
	<g id="right">
		<path fill="#3C3C3B" d="M1389.8,1085.9c-2.9,2.7-4.1,6.1-3.8,11.1c0.2,3.8,1.1,10.5,3.2,25.4c0.6,4.1,1.2,11.5,1.5,16.3
			c1.3,28.6,1.3,28.8,4.9,44c3.4,14.6,3.5,19.5,0.4,24.3c-2.4,3.7-5.9,3.3-10.1-1.1c-1.6-1.8-10.6-15.7-12.1-19
			c-0.5-1-3.7-5.1-7.1-9c-10.4-12-11.9-14.1-16.7-23.8c-3.9-7.9-10-18.8-11.9-21.1c-4.9-6.1-14.7-5.2-18.8,1.6
			c-4,6.7-2,12.6,12.3,35.1c4.2,6.7,8.2,13.9,12.6,23.1c3.6,7.4,7.1,13,13.7,21.7c10.2,13.4,11.1,16.2,6.6,20.1
			c-2,1.7-3.1,2.2-6.3,3.1c-5.7,1.5-9.4,0.9-30.4-5.6c-9.3-2.9-11.1-3.7-22.1-9.5c-13.7-7.3-17.3-8.5-21.8-7.2c-7.2,2-8.7,11-3,17.3
			c2.9,3.2,11.3,8.3,21.4,13.2c4.7,2.2,11.2,5.6,14.5,7.4c3.3,1.9,9.4,4.8,13.5,6.5c12,5,21,10.5,21.9,13.4c0.2,0.7,1,2,1.7,2.9
			c3.1,4.1,9.8,15.3,11,18.3c2.3,5.8,10.5,21.7,15.2,29.7c3.6,6,9.4,13.4,14.7,18.9c2.2,2.3,5.2,5.7,6.6,7.5c1.4,1.9,4.1,4.9,6,6.7
			c5.3,5.1,7.9,8.4,9.9,12.4c3.1,6,6.4,19.5,7.7,30.5c0.5,4.3,2.8,18,5,29.2c2.3,11.7,5.6,24.8,9.3,36.4l33.7,133.6h57.7
			c42.4,0,71,0.7,70.4,0c0,0-71.8-150-72.6-152.4c-0.9-2.4-1.6-4.6-1.8-4.7c-0.2-0.2-1.5-3.1-3.6-8.2c-0.4-1-1.7-4.5-2.9-7.8
			c-1.2-3.3-2.8-7.3-3.6-8.9c-1.4-3.1-7.8-19.5-8.4-21.7c-0.2-0.7-1.8-4.7-3.5-8.9c-1.8-4.3-4.4-11.9-6-17.1
			c-3.2-10.5-3.6-11.7-8.5-23.3c-1.9-4.5-3.5-8.8-3.5-9.6c-0.1-2.8,13.3-29.6,20.1-40.1c4-6.1,6.2-11.3,8.1-18.5
			c1.2-4.5,2.4-7.3,5.7-13.2c2.3-4.1,5-8.2,6-9.2c1-0.9,1.8-2,1.8-2.4s0.5-1,1-1.4c0.5-0.3,1.9-1.7,2.9-3.1c1.1-1.4,4-4.5,6.5-6.9
			c3.6-3.5,5.7-5.1,10.1-7.6c7.2-4.1,8.4-5.1,9.2-8.2c1.1-4.1-0.4-7.7-4.4-10.2c-2.9-1.8-6.3-2.4-12.4-2
			c-10.9,0.7-21.3,4.2-29.4,9.9c-4.2,3-10.5,9.5-13.5,14c-3.6,5.3-5.8,7.9-10.2,11.8c-3.7,3.2-4.3,3.6-5.5,3.3
			c-1.9-0.4-2.6-1.5-4.9-6.7c-4.8-11.5-6.2-17-6.8-27.1c-0.2-2.4-0.6-6.6-1.1-9.4c-0.8-5-0.9-8.9-0.6-21.9
			c0.3-9.2,0.8-16.8,1.3-20.1c0.6-3.4,0.8-12.8,0.5-20.5c-0.4-7.3,0-13.2,1.4-20.8c1.7-9.6,1.6-24.5-0.3-28.8
			c-1.2-2.7-4.4-5.9-7-6.9c-4.2-1.6-9.4-0.4-12,2.8c-3.1,3.8-5.9,15.8-6.7,28.2c-0.3,6.5-1.1,10.9-2.9,18.3
			c-0.6,2.3-2.8,12.9-4.8,23.6c-4.2,20.9-5.6,26.1-8.3,30.3l-1.8,2.7l-0.6-1.7c-0.4-0.9-1.1-5.1-1.7-9.1c-0.5-4.1-1.4-9.2-1.8-11.3
			c-0.5-2.2-0.8-4.7-0.8-5.5c0.1-3.3-2.5-17.5-4.7-26.4c-3.1-12.3-4.1-17.9-4.5-25.7c-0.4-6.9-2.4-18.6-4.3-24.3
			c-1.4-4.3-3.5-6.8-6.9-8.4C1398.6,1081.8,1393.5,1082.5,1389.8,1085.9z"/>
		<path fill="#3C3C3B" d="M1667.1,1094.3c-3,1.2-4.7,2.4-6.7,4.6c-2.9,3.2-3.9,6.8-3.4,12.3c0.4,5.8,2.2,17.8,3.9,26
			c1.6,7.8,2.8,17,3.6,28.6c0.5,6.3,1.3,11.5,3,19.8c6,28.6,7.4,37.1,6.2,37.1c-1.3,0-5.6-2.5-7.1-4.1c-2.8-3.1-5.7-8.9-12.9-26.4
			c-4-9.5-8.4-20-10-23.3c-4.5-9.5-6.2-14-7.7-21c-2.7-12.2-7.4-23.6-11.2-27.2c-3.2-3.1-8.7-3.8-12.9-1.7c-4.3,2.3-7.2,6.4-8,11.5
			c-1,5.6,1.3,19,5.1,30.5c1.7,5,4.8,18.6,5.4,22.8c0.6,5,3.4,14.4,7.1,23.8c0.9,2.4,3.8,10.2,6.3,17.4c3.8,10.9,4.8,14.5,6,21.1
			c0.8,4.4,1.9,9.6,2.4,11.8c2,7.1,1.2,14.9-2.4,26.3c-1.9,6.2-3,8.3-3.9,8.3c-1.1,0-10.8-9.8-14.9-14.9c-4.7-6-14.5-15.7-18.6-18.4
			c-7.4-4.8-16.1-7.4-29.1-8.9c-4.8-0.5-5.9-0.4-8.9,0.3c-1.9,0.5-4.2,1.4-5.2,2c-2.5,1.6-4.7,5.2-4.7,7.8c0,4.1,0.7,5,7,9
			c5.8,3.7,9.7,7.3,19.3,17.4c2,2.2,4.4,4.3,5.2,4.7c0.8,0.4,1.6,1.1,1.7,1.5c0.2,0.4,1.8,2.3,3.7,4.2c3.4,3.5,9.3,11.2,11.7,15.2
			c0.7,1.3,2.5,5,4,8.3c5.2,11.5,7.5,15.1,13,19.9c8.8,7.8,23,21.4,28.7,27.2c3.5,3.7,8.1,8.1,10.1,9.7c9.1,7.6,11,10.7,14,24
			c1.3,5.4,1.4,7.4,1.8,19.6c0.4,12.7-0.1,40.9-0.8,46.9l-13.1,131.6l66.6-0.3h71.4l-29.5-132c-1.9-14.1-2.7-20.1-3.9-26.7
			c-2.4-14.3-3-19.6-3.1-28c-0.1-9.7,0.4-13,3.8-27.5c1.3-5.5,2.8-12,3.4-14.4c0.5-2.4,3.3-10.1,6.2-17.2c2.9-7.1,5.7-14.8,6.3-17.2
			c1.3-5.4,3.2-19.2,3.9-28.4c0.9-13.2,2.3-25.7,3.3-30.4c0.5-2.6,1.1-5.6,1.2-6.5c0.8-5.2,6.7-18.8,12.2-27.8
			c6.1-9.9,7.7-12.9,9.6-17.5c2.3-5.8,4.2-9.3,8.9-16.5c4.2-6.4,4.9-7.7,7.6-14.6c3.9-9.8,4.3-13.6,2-18c-1.8-3.4-4.4-5.1-8.1-5.4
			s-5.9,0.6-9.1,3.6c-4,3.7-8.4,10.5-12.9,19.9c-5.7,12.1-9.1,16.9-21.7,30.9c-8.7,9.7-9.8,10.5-14,10.7c-2.8,0.1-3.8-0.1-6.2-1.2
			c-2.8-1.3-2.8-1.3-3.8-4.8c-1.2-4.4-1-11.4,0.8-24.8c1-8,1.3-12.2,1.4-28.5c0.1-12.2,0.5-21,0.9-24.4c1-7.1,1.1-27.7,0.2-30.5
			c-0.9-3.1-3.6-6.1-6.8-7.8c-2.4-1.3-3.3-1.5-6.4-1.5s-4,0.2-6.4,1.6c-3.5,2-5.8,5-6.5,8.5c-0.3,1.5-0.6,10.1-0.6,19.5
			c-0.1,20.1-0.1,20.6-4.8,42.2c-2.5,11.5-2.9,14.1-3.6,25.2c-0.5,7.2-0.9,9.9-1.6,11.7c-0.6,1.3-1.3,2.3-1.5,2.3s-1.6-0.6-3-1.4
			c-3.2-1.8-5.3-4.6-6.2-8.4c-0.7-2.9-2.9-18.2-4-28.4c-0.8-7.1-2.4-14.2-6.7-30.2c-2.6-9.7-3.8-15.2-4.6-21.6
			c-0.6-4.7-2-13.4-3.2-19.2c-2.7-14.4-4.2-17.5-9.6-19.9C1674,1093.5,1669.8,1093.3,1667.1,1094.3z"/>
	</g>
	<g id="middle">
		<g id="left_1_">
			<path fill="#3C3C3B" d="M842.6,1087.1c-4.5,3.7-5.2,7.1-4.1,21.7c0.4,6,1.3,14.7,1.9,19.4c0.8,6.4,1.1,12,1.1,22
				c0,16.5,0.3,23.8,1.4,30.9c1.5,10.2,3.4,25.5,3.5,28.5c0.1,3.9-1.3,7.2-3.9,9.7c-1.1,1.1-2.3,2.1-2.5,2.1s-1.1-0.8-2-1.9
				c-1.2-1.6-2.3-4.1-4.6-10.9c-3.6-10.6-4.6-13-10-23.5c-10.2-19.7-10.4-20.2-15.6-39.6c-2.5-9.1-4.9-17.3-5.6-18.7
				c-1.6-3.2-4.6-5.5-8.5-6.5c-2.7-0.7-3.6-0.7-6.6,0c-2.9,0.8-3.8,1.2-5.8,3.1c-2.7,2.5-4.4,6.1-4.5,9.3c-0.1,3,5.2,22.8,8.1,29.5
				c1.3,3.2,3.9,11.6,7.2,23.3c4.4,15.7,5.7,19.7,8.7,27.2c5.2,12.6,7.2,19.2,7.2,23.8c0,3.6,0,3.6-2.4,5.6c-2,1.7-2.9,2.1-5.7,2.7
				c-4.1,0.9-5.4,0.3-16.3-6.8c-15.8-10.4-20.3-14.1-29-24.4c-6.7-8-12.8-13.5-17.6-16c-3.9-2-6.2-2.3-9.8-1.1
				c-3.5,1.2-5.6,3.6-6.4,7.3c-1.1,4.9,0.3,8.4,6.6,16.9c4.4,5.9,5.4,7,11.1,12.1c6.4,5.8,9.2,8.7,12.9,13.7c3,4,5.4,6.5,13.8,14.5
				c7.6,7.3,16.9,18.9,19,23.8c0.4,0.9,1.7,3.6,2.9,6c2.2,4.4,6.8,16,11.1,28.6c3,8.7,8.5,21.6,11.1,26.5c1.2,2.1,5.9,8.9,10.5,15
				s9.3,12.9,10.4,15c1.1,2.2,4.3,8,7,13c7,13.2,8.4,16.3,10.8,25.7c2.1,8.2,2.9,13.4,4.3,27.9c0.6,6.7,1.3,12.7,3.2,26.8l7.4,130.2
				h53.4h73.9L948,1445.9c-2.2-5.6-10-32.8-12.9-45.2c-2.9-11.9-3.2-13.8-3.4-19.4c-0.5-13.6,0.5-17.1,7.3-26.7
				c1.5-2.1,4.7-7.5,7.2-11.9c4-7.1,14.2-23.8,20.7-33.5c4.1-6.1,5.4-10.2,7.4-22.6c0.6-3.6,1.4-7.6,1.7-9c1.3-4.5,5-13.3,7.4-17.6
				c1.3-2.3,2.4-4.6,2.4-5c0-0.5,0.6-1.3,1.3-1.9s2.4-3.3,3.8-5.9c6.6-12.2,9.5-16.6,14.1-21.7c5-5.4,5.4-6.4,4.4-10.4
				c-0.6-2.5-3.7-5.5-6.5-6.3c-1.1-0.3-3.6-0.6-5.5-0.6c-3.1,0-4.1,0.3-8.6,2c-12.2,4.7-19.9,9.4-25.8,15.9
				c-3.3,3.6-10.2,15.4-13.2,22.5c-2.6,6-9.5,17.9-10.5,18.2c-0.9,0.2-2.5-1.6-6-7.1c-6.5-10.2-9.2-17.5-9.1-24.8
				c0-2.2-0.3-7.6-0.7-12c-0.5-6.6-0.5-10.4,0.4-21.9c0.6-7.6,1.3-15.9,1.6-18.4c1.2-10,1.4-19.8,0.7-24.8
				c-0.6-4.3-1.1-18.2-0.7-23.4c0.7-12.1-0.6-25.6-3-30.8c-2.1-4.8-5.9-7.9-10.7-9.1c-4.5-1-9.7,1.1-12,4.9
				c-2.7,4.5-4.3,16.6-3.7,29.2c0.3,7.2-0.1,12-2,22.3c-0.7,3.6-2.3,14.8-3.6,25c-2.4,18.7-3.7,25-5.6,28.8c-1,1.9-4.5,5.4-5.8,5.8
				c-1.2,0.3-2-8.3-3.6-37.5c-0.5-8.5-1-13.8-2.2-19.9c-2.2-11.5-3.4-20.7-3.9-28.6c-0.5-8.3-1.9-20.4-3-26.1c-1-5.4-2.9-8.6-6.5-11
				c-2.5-1.7-4.5-2.4-7.7-2.8C849.1,1083.9,845,1085.1,842.6,1087.1z"/>
		</g>
		<g id="left_2_">
			<path fill="#3C3C3B" d="M1148.2,1080.3c-3.1,0.8-5,1.8-7.2,3.8c-3.2,2.9-4.7,6.3-4.9,11.8c-0.3,5.8,0,18,0.6,26.2
				c0.6,7.9,0.7,17.2,0.1,28.8c-0.3,6.3-0.1,11.5,0.6,20c2.5,29.1,2.8,37.8,1.6,37.6c-1.3-0.1-5.2-3.2-6.5-4.9
				c-2.4-3.5-4.5-9.6-9.5-27.7c-2.8-9.9-5.9-20.8-7.1-24.3c-3.3-9.9-4.4-14.7-5.1-21.8c-1.2-12.5-4.4-24.3-7.7-28.4
				c-2.8-3.4-8.2-4.8-12.5-3.2c-4.6,1.8-7.9,5.4-9.3,10.4c-1.7,5.5-1,19,1.3,30.9c1,5.2,2.5,19,2.5,23.3c0,5.1,1.6,14.7,4.1,24.5
				c0.6,2.4,2.5,10.5,4.1,18c2.5,11.3,3,15,3.4,21.6c0.2,4.4,0.7,9.8,0.9,12c1.1,7.3-0.6,14.9-5.6,25.8c-2.7,5.9-4,7.9-4.9,7.8
				c-1.1-0.1-9.6-11-12.9-16.6c-4-6.6-12.5-17.3-16.2-20.5c-6.8-5.7-15-9.3-27.8-12.3c-4.7-1.1-5.8-1.1-8.8-0.8
				c-1.9,0.2-4.4,0.9-5.4,1.3c-2.7,1.3-5.3,4.6-5.6,7.2c-0.5,4.1,0.1,5.1,5.8,9.8c5.3,4.4,8.8,8.4,17,19.6c1.7,2.4,3.8,4.8,4.6,5.3
				s1.4,1.3,1.5,1.7c0.1,0.4,1.5,2.5,3.1,4.6c3,3.9,7.9,12.2,9.8,16.5c0.6,1.3,1.9,5.2,3,8.7c3.7,12,5.6,15.8,10.4,21.3
				c7.8,8.8,20.2,24,25.1,30.4c3.1,4.1,7,9,8.8,10.8c8.1,8.6,9.6,11.9,11,25.5c0.6,5.5,0.5,7.5-0.7,19.7
				c-1.2,12.6-5.1,40.6-6.5,46.5l-19.1,148.6l71.4-0.6h53.4l-11-137.2c-0.1-14.2-0.3-20.3-0.6-27c-0.7-14.5-0.6-19.8,0.4-28.2
				c1.1-9.6,2-12.9,7.1-26.9c2-5.3,4.3-11.6,5.1-13.9c0.8-2.3,4.5-9.6,8.3-16.3s7.4-14,8.3-16.3c1.9-5.2,5.5-18.7,7.3-27.8
				c2.6-13,5.4-25.2,7-29.8c0.9-2.5,1.7-5.4,2-6.4c1.4-5.1,9-17.9,15.5-26.1c7.2-9.1,9.3-11.9,11.6-16.3c3-5.4,5.4-8.7,10.9-15.3
				c5-5.9,5.8-7.1,9.3-13.5c5.1-9.3,5.9-12.9,4.2-17.6c-1.3-3.5-3.8-5.6-7.4-6.3c-3.7-0.7-5.9-0.1-9.5,2.4
				c-4.4,3.2-9.6,9.5-15.2,18.2c-7.2,11.3-11.1,15.7-25.3,28.1c-9.8,8.6-11,9.3-15.2,9c-2.8-0.2-3.8-0.5-6-1.9
				c-2.6-1.7-2.6-1.7-3.1-5.3c-0.7-4.5,0.4-11.4,3.8-24.6c2-7.8,2.7-11.9,4.9-28.1c1.6-12.1,3.1-20.8,3.9-24.1
				c1.9-7,4.5-27.3,3.9-30.3c-0.6-3.1-2.8-6.5-5.8-8.6c-2.2-1.6-3.1-1.9-6.2-2.3c-3-0.3-4-0.2-6.5,0.8c-3.8,1.6-6.4,4.2-7.5,7.6
				c-0.5,1.5-1.8,9.9-3,19.3c-2.5,19.9-2.6,20.4-10,41.3c-3.9,11.1-4.6,13.7-6.7,24.6c-1.4,7.1-2.1,9.7-3,11.4
				c-0.7,1.2-1.5,2.2-1.7,2.1s-1.5-0.8-2.8-1.8c-2.9-2.1-4.7-5.2-5.2-9.1c-0.4-3-0.6-18.4-0.5-28.7c0.1-7.1-0.6-14.4-2.9-30.8
				c-1.4-10-1.9-15.5-2-22c0-4.8-0.4-13.5-0.8-19.5c-0.9-14.6-2.1-17.9-7-20.9C1155.1,1080.3,1151,1079.6,1148.2,1080.3z"/>
		</g>
	</g>
	<g id="left">
		<path fill="#3C3C3B" d="M575.4,1084.1c-3.2,1.8-5.2,4.5-6.3,8.8c-1.4,5.8-2.7,17.6-2.5,24.5c0.2,7.7-0.4,13.4-2.7,25.9
			c-1.6,9-3.2,23.3-2.9,26.6c0.1,0.8-0.1,3.4-0.4,5.6c-0.3,2.2-0.8,7.3-1,11.4c-0.3,4.1-0.8,8.3-1.1,9.2l-0.5,1.7l-2-2.6
			c-3-4-4.8-9.1-10.4-29.7c-2.8-10.5-5.8-20.9-6.5-23.2c-2.3-7.3-3.4-11.6-4.2-18.1c-1.6-12.3-5.3-24.1-8.7-27.7
			c-2.8-3-8.1-3.9-12.2-1.9c-2.5,1.2-5.5,4.5-6.5,7.3c-1.6,4.4-0.7,19.3,1.7,28.8c1.9,7.4,2.7,13.3,2.9,20.6
			c0.2,7.7,1.1,17.1,1.9,20.4c0.8,3.3,1.9,10.8,2.8,20c1.2,12.9,1.4,16.8,0.9,21.9c-0.2,2.8-0.4,7-0.4,9.4
			c0.1,10.1-0.9,15.7-4.9,27.5c-1.8,5.4-2.5,6.6-4.4,7.1c-1.2,0.4-1.8,0-5.7-2.9c-4.7-3.5-7.1-5.9-11-11c-3.4-4.3-10.1-10.3-14.5-13
			c-8.5-5.2-19.1-7.9-30-7.8c-6.2,0.1-9.5,0.8-12.3,2.8c-3.8,2.8-5,6.5-3.6,10.5c1,3,2.3,4,9.7,7.5c4.6,2.2,6.8,3.6,10.7,6.9
			c2.6,2.2,5.8,5.2,6.9,6.5s2.6,2.6,3.1,2.9s1.1,0.9,1.1,1.3c0.1,0.4,0.9,1.4,2,2.3s4,4.7,6.6,8.7c3.7,5.6,5.1,8.4,6.6,12.7
			c2.4,7.1,5,12.1,9.4,17.9c7.5,10,22.8,35.9,22.9,38.7c0.1,0.7-1.3,5.1-2.8,9.8c-4.1,11.9-4.4,13.2-6.9,23.9
			c-1.2,5.3-3.3,13.1-4.8,17.5s-2.7,8.5-2.9,9.2c-0.4,2.2-5.6,19-6.8,22.2c-0.7,1.7-2,5.8-3,9.1c-1,3.3-21.2,73.7-21.5,74.8
			c-1.7,5.2-25.7,90.7-25.9,91.1c-0.5,0.8,20.3-0.6,62.3,0H546l16.8-108.1c2.9-11.9,9-49,10.4-60.8c1.4-11.3,2.7-25.1,2.9-29.5
			c0.5-11,2.9-24.8,5.5-31c1.7-4.1,4.1-7.6,9-13c1.8-1.9,4.2-5.1,5.5-7.1c1.3-1.9,4-5.5,6.1-8c4.9-5.9,10.2-13.6,13.3-19.8
			c4.2-8.3,11.2-24.7,13.1-30.7c1-3.1,6.9-14.7,9.7-19c0.6-1,1.3-2.4,1.5-3c0.7-2.9,9.2-9,20.9-14.8c4-2,9.9-5.3,13-7.5
			c3.1-2.1,9.4-5.8,14-8.4c9.8-5.5,17.7-11.2,20.5-14.6c5.3-6.7,3.2-15.5-4.2-17.1c-4.6-1-8.1,0.4-21.3,8.7
			c-10.5,6.6-12.3,7.5-21.4,11c-20.5,7.9-24.2,8.8-30,7.7c-3.3-0.6-4.4-1.1-6.5-2.6c-4.8-3.6-4-6.4,5.2-20.5c6-9.2,9.1-15,12.2-22.6
			c3.7-9.4,7.2-17,10.9-23.9c12.7-23.4,14.2-29.4,9.8-35.8c-4.5-6.5-14.3-6.7-18.8-0.3c-1.7,2.4-7,13.7-10.3,21.8
			c-4.1,10-5.4,12.2-15,24.9c-3.1,4.1-6.1,8.4-6.4,9.4c-1.3,3.4-9.3,17.9-10.8,19.7c-3.8,4.8-7.3,5.4-10,1.8
			c-3.4-4.6-3.7-9.5-1.3-24.2c2.5-15.4,2.4-15.6,1.7-44.2c-0.1-4.9,0-12.2,0.3-16.4c1-15,1.4-21.8,1.4-25.6
			c-0.1-5.1-1.4-8.4-4.6-10.9C585.3,1081.9,580.1,1081.5,575.4,1084.1z"/>
		<path fill="#3C3C3B" d="M232.3,1094.1c-4.5,3.7-5.2,7.1-4.1,21.7c0.4,6,1.3,14.7,1.9,19.4c0.8,6.4,1.1,12,1.1,22
			c0,16.5,0.3,23.8,1.4,30.9c1.5,10.2,3.4,25.5,3.5,28.5c0.1,3.9-1.3,7.2-3.9,9.7c-1.1,1.1-2.3,2.1-2.5,2.1s-1.1-0.8-2-1.9
			c-1.2-1.6-2.3-4.1-4.6-10.9c-3.6-10.6-4.6-13-10-23.5c-10.2-19.7-10.4-20.2-15.6-39.6c-2.5-9.1-4.9-17.3-5.6-18.7
			c-1.6-3.2-4.6-5.5-8.5-6.5c-2.7-0.7-3.6-0.7-6.6,0c-2.9,0.8-3.8,1.2-5.8,3.1c-2.7,2.5-4.4,6.1-4.5,9.3c-0.1,3,5.2,22.8,8.1,29.5
			c1.3,3.2,3.9,11.6,7.2,23.3c4.4,15.7,5.7,19.7,8.7,27.2c5.2,12.6,7.2,19.2,7.2,23.8c0,3.6,0,3.6-2.4,5.6c-2,1.7-2.9,2.1-5.7,2.7
			c-4.1,0.9-5.4,0.3-16.3-6.8c-15.8-10.4-20.3-14.1-29-24.4c-6.7-8-12.8-13.5-17.6-16c-3.9-2-6.2-2.3-9.8-1.1
			c-3.5,1.2-5.6,3.6-6.4,7.3c-1.1,4.9,0.3,8.4,6.6,16.9c4.4,5.9,5.4,7,11.1,12.1c6.4,5.8,9.2,8.7,12.9,13.7c3,4,5.4,6.5,13.8,14.5
			c7.6,7.3,16.9,18.9,19,23.8c0.4,0.9,1.7,3.6,2.9,6c2.2,4.4,6.8,16,11.1,28.6c3,8.7,8.5,21.6,11.1,26.5c1.2,2.1,5.9,8.9,10.5,15
			s9.3,12.9,10.4,15c1.1,2.2,4.3,8,7,13c7,13.2,8.4,16.3,10.8,25.7c2.1,8.2,2.9,13.4,4.3,27.9c0.6,6.7,1.3,12.7,3.2,26.8l7.2,123.1
			h53.9h71l-39.7-146.6c-2.2-5.6-10-32.8-12.9-45.2c-2.9-11.9-3.2-13.8-3.4-19.4c-0.5-13.6,0.5-17.1,7.3-26.7
			c1.5-2.1,4.7-7.5,7.2-11.9c4-7.1,14.2-23.8,20.7-33.5c4.1-6.1,5.4-10.2,7.4-22.6c0.6-3.6,1.4-7.6,1.7-9c1.3-4.5,5-13.3,7.4-17.6
			c1.3-2.3,2.4-4.6,2.4-5c0-0.5,0.6-1.3,1.3-1.9c0.7-0.6,2.4-3.3,3.8-5.9c6.6-12.2,9.5-16.6,14.1-21.7c5-5.4,5.4-6.4,4.4-10.4
			c-0.6-2.5-3.7-5.5-6.5-6.3c-1.1-0.3-3.6-0.6-5.5-0.6c-3.1,0-4.1,0.3-8.6,2c-12.2,4.7-19.9,9.4-25.8,15.9
			c-3.3,3.6-10.2,15.4-13.2,22.5c-2.6,6-9.5,17.9-10.5,18.2c-0.9,0.2-2.5-1.6-6-7.1c-6.5-10.2-9.2-17.5-9.1-24.8
			c0-2.2-0.3-7.6-0.7-12c-0.5-6.6-0.5-10.4,0.4-21.9c0.6-7.6,1.3-15.9,1.6-18.4c1.2-10,1.4-19.8,0.7-24.8
			c-0.6-4.3-1.1-18.2-0.7-23.4c0.7-12.1-0.6-25.6-3-30.8c-2.1-4.8-5.9-7.9-10.7-9.1c-4.5-1-9.7,1.1-12,4.9
			c-2.7,4.5-4.3,16.6-3.7,29.2c0.3,7.2-0.1,12-2,22.3c-0.7,3.6-2.3,14.8-3.6,25c-2.4,18.7-3.7,25-5.6,28.8c-1,1.9-4.5,5.4-5.8,5.8
			c-1.2,0.3-2-8.3-3.6-37.5c-0.5-8.5-1-13.7-2.2-19.9c-2.2-11.5-3.4-20.7-3.9-28.6c-0.5-8.3-1.9-20.4-3-26.1c-1-5.4-2.9-8.6-6.5-11
			c-2.5-1.7-4.5-2.4-7.7-2.8C238.7,1090.9,234.7,1092.1,232.3,1094.1z"/>
	</g>
</g>
<g id="Layer_2">
	<path fill="none" stroke="#575756" stroke-width="6" stroke-miterlimit="10" d="M104.8,961.1c0,65.7,0,118.9,0,118.9"/>
	<path fill="none" stroke="#575756" stroke-width="6" stroke-miterlimit="10" d="M32,961.1c0,65.7,0,118.9,0,118.9"/>
	<path fill="none" stroke="#575756" stroke-width="6" stroke-miterlimit="10" d="M179.3,961.1c0,65.7,0,118.9,0,118.9"/>
	<path fill="none" stroke="#575756" stroke-width="6" stroke-miterlimit="10" d="M330.3,961.1c0,65.7-7.4,119.5-7.4,119.5"/>
	<path fill="none" stroke="#575756" stroke-width="6" stroke-miterlimit="10" d="M254.2,961.1c0,65.7,0,118.9,0,118.9"/>
	<path fill="none" stroke="#575756" stroke-width="6" stroke-miterlimit="10" d="M401.4,961.1c0,65.7-5.9,119.5-5.9,119.5"/>
	<path fill="none" stroke="#575756" stroke-width="6" stroke-miterlimit="10" d="M546.8,961.1c0,65.7,0,118.9,0,118.9"/>
	<path fill="none" stroke="#575756" stroke-width="6" stroke-miterlimit="10" d="M474,961.1c0,65.7-6.6,119.5-6.6,119.5"/>
	<path fill="none" stroke="#575756" stroke-width="6" stroke-miterlimit="10" d="M621.2,961.1c0,65.7,1,118.9,1,118.9"/>
	<path fill="none" stroke="#575756" stroke-width="6" stroke-miterlimit="10" d="M768.9,961.1c0,65.7-1,118.9-1,118.9"/>
	<path fill="none" stroke="#575756" stroke-width="6" stroke-miterlimit="10" d="M696.1,961.1c0,65.7-2,118.9-2,118.9"/>
	<path fill="none" stroke="#575756" stroke-width="6" stroke-miterlimit="10" d="M843.4,961.1c0,65.7,2,118.9,2,118.9"/>
	<path fill="none" stroke="#575756" stroke-width="6" stroke-miterlimit="10" d="M991.2,961.1c0,65.7-2,118.9-2,118.9"/>
	<path fill="none" stroke="#575756" stroke-width="6" stroke-miterlimit="10" d="M918.4,961.1c0,65.7,2,118.9,2,118.9"/>
	<path fill="none" stroke="#575756" stroke-width="6" stroke-miterlimit="10" d="M1065.6,961.1c0,65.7,2,118.9,2,118.9"/>
	<path fill="none" stroke="#575756" stroke-width="6" stroke-miterlimit="10" d="M1213.3,961.1c0,65.7,2,118.9,2,118.9"/>
	<path fill="none" stroke="#575756" stroke-width="6" stroke-miterlimit="10" d="M1140.5,961.1c0,65.7,0,118.9,0,118.9"/>
	<path fill="none" stroke="#575756" stroke-width="6" stroke-miterlimit="10" d="M1287.8,961.1c0,65.7-3,118.9-3,118.9"/>
	<path fill="none" stroke="#575756" stroke-width="6" stroke-miterlimit="10" d="M1433.2,961.1c0,65.7-1,118.9-1,118.9"/>
	<path fill="none" stroke="#575756" stroke-width="6" stroke-miterlimit="10" d="M1360.4,961.1c0,65.7-4,118.9-4,118.9"/>
	<path fill="none" stroke="#575756" stroke-width="6" stroke-miterlimit="10" d="M1507.6,961.1c0,65.7,2,118.9,2,118.9"/>
	<path fill="none" stroke="#575756" stroke-width="6" stroke-miterlimit="10" d="M1655.3,961.1c0,65.7-2,118.9-2,118.9"/>
	<path fill="none" stroke="#575756" stroke-width="6" stroke-miterlimit="10" d="M1582.5,961.1c0,65.7-2,118.9-2,118.9"/>
	<path fill="none" stroke="#575756" stroke-width="6" stroke-miterlimit="10" d="M1729.8,961.1c0,65.7-2,118.9-2,118.9"/>
	<path fill="none" stroke="#575756" stroke-width="6" stroke-miterlimit="10" d="M1801.9,961.1c0,65.7-2,118.9-2,118.9"/>
	<path fill="none" stroke="#575756" stroke-width="6" stroke-miterlimit="10" d="M1949.6,961.1c0,65.7,0,118.9,0,118.9"/>
	<path fill="none" stroke="#575756" stroke-width="6" stroke-miterlimit="10" d="M1876.8,961.1c0,65.7,2,118.9,2,118.9"/>
	<path fill="none" stroke="#575756" stroke-width="6" stroke-miterlimit="10" d="M0,1036.9c0-9,885.6-16.4,1980-16.4"/>
	<linearGradient id="SVGID_1_" gradientUnits="userSpaceOnUse" x1="990" y1="961.1" x2="990" y2="894.5">
		<stop  offset="0" style="stop-color:#F2F2F2"/>
		<stop  offset="0.4028" style="stop-color:#E6E6E6"/>
		<stop  offset="0.6607" style="stop-color:#EEEEEE"/>
		<stop  offset="1" style="stop-color:#F2F2F2"/>
	</linearGradient>
	<rect x="0" y="894.5" fill="url(#SVGID_1_)" width="1980" height="66.6"/>
</g>
</svg>
