<?xml version="1.0" encoding="utf-8"?>
<!-- Generator: Adobe Illustrator 24.2.0, SVG Export Plug-In . SVG Version: 6.00 Build 0)  -->
<svg version="1.1" baseProfile="tiny" id="Layer_1" xmlns="http://www.w3.org/2000/svg" xmlns:xlink="http://www.w3.org/1999/xlink"
	 x="0px" y="0px" viewBox="0 0 64 64" overflow="visible" xml:space="preserve">
<g>
	<path d="M51,38.9c-3.7,0-7,1.7-9.2,4.4c-0.9-1.2-2.1-2.2-3.5-2.7L28,37.1v-2.1c2.2-1.4,3.9-3.7,4.6-6.3c2.5-0.3,4.4-2.4,4.4-4.9v-8
		c0-8.3-6.7-15-15-15S7,7.6,7,15.9v8c0,2.6,1.9,4.6,4.4,4.9c0.7,2.6,2.4,4.8,4.6,6.3v2.1L5.8,40.5c-2.9,1-4.8,3.6-4.8,6.6v15.7h42
		v-3.1c2.1,1.9,4.9,3.1,8,3.1c6.6,0,12-5.4,12-12S57.6,38.9,51,38.9z M57.8,58.2c-0.9-3.2-2.9-6-5.8-7.8c0-0.7,0.1-1.4,0.3-2.1
		c3.2,2,5.5,5.1,6.6,8.8C58.6,57.4,58.2,57.8,57.8,58.2z M44.5,58.3l-0.1,0c-0.5-0.4-0.9-0.9-1.3-1.4c0.8,0.1,1.6,0.2,2.4,0.2
		c3,0,5.9-0.8,8.6-2.2c0.4,0.5,0.7,1.1,1,1.7C51.8,58.2,48.1,58.9,44.5,58.3z M35,52.9h4.2c0.1,0.7,0.3,1.4,0.5,2H35V52.9z
		 M47.9,41.4c0.6-0.2,1.2-0.3,1.9-0.4c-2.3,3-3.6,6.7-3.7,10.5c-0.7,0.1-1.3,0.1-2,0C44.2,47.9,45.5,44.3,47.9,41.4L47.9,41.4z
		 M50,50.2c-0.6,0.3-1.3,0.6-2,0.8c0.2-3.8,1.7-7.3,4.3-10.1c0.6,0.1,1.1,0.2,1.6,0.3C51.6,43.7,50.2,46.8,50,50.2z M44.8,53.5
		c2.1,0,4.2-0.5,6.2-1.5c0.6,0.4,1.2,0.8,1.7,1.3c-3.4,1.7-7.2,2.2-10.9,1.3c-0.2-0.5-0.4-1-0.5-1.6C42.4,53.4,43.6,53.5,44.8,53.5z
		 M53,46.3c0.3-0.6,0.6-1.2,1-1.7c3.1,2,5.5,4.9,6.8,8.2l0.1,0.2c-0.1,0.6-0.3,1.2-0.6,1.8C58.8,51.2,56.3,48.3,53,46.3z M60.7,48.4
		c-1.4-2.2-3.3-4-5.5-5.5c0.2-0.3,0.5-0.5,0.8-0.7C58.3,43.5,60,45.8,60.7,48.4z M44,43.7c-1.2,2.3-1.8,4.9-2,7.5
		c-0.4-0.1-0.7-0.2-1-0.3c0,0,0,0,0,0C41,48.1,42.2,45.5,44,43.7z M33,26.7c0-0.3,0-0.5,0-0.8V21c1.2,0.4,2,1.5,2,2.8
		C35,25.2,34.1,26.3,33,26.7z M22,2.9c7.2,0,13,5.8,13,13v4c-0.6-0.4-1.3-0.8-2-0.9v-6.1h-2v4c-2.4-0.1-4.6-1-6.3-2.7l-1.4,1.4
		c0.5,0.5,1,0.9,1.5,1.3c-2.3-0.1-4.5-1-6.1-2.7l-1.4,1.4c0.5,0.5,1,0.9,1.5,1.3c-2.2-0.1-4.2-0.9-5.8-2.4v-1.6h-2V19
		c-0.7,0.2-1.4,0.5-2,0.9v-4C9,8.7,14.8,2.9,22,2.9z M9,23.9c0-1.3,0.8-2.4,2-2.8v4.8c0,0.3,0,0.6,0,0.8C9.9,26.3,9,25.2,9,23.9z
		 M13,25.9V17c1.8,1.2,4,1.9,6.2,1.9H20v-1.3c1.6,0.8,3.4,1.3,5.2,1.3H26v-1.3c1.5,0.8,3.2,1.2,5,1.3v7c0,5-4,9-9,9S13,30.8,13,25.9
		z M22,36.9c1.4,0,2.8-0.3,4-0.8v1.3l-4,4l-4-4v-1.3C19.2,36.6,20.6,36.9,22,36.9z M6.4,42.4L16.7,39l5.3,5.3l5.3-5.3l10.3,3.4
		c1.3,0.4,2.3,1.4,2.9,2.6c-1,1.7-1.5,3.7-1.5,5.8h-4v-4h-2v14H11v-14H9v4H3v-3.7C3,45,4.4,43.1,6.4,42.4z M9,54.9H3v-2h6V54.9z
		 M3,56.9h6v4H3V56.9z M35,60.9v-4h5.6c0.1,0.2,0.2,0.4,0.4,0.6v3.4H35z M48.3,60.5c2.6-0.2,5.1-0.9,7.4-2c0.1,0.3,0.2,0.7,0.2,1
		c-1.5,0.9-3.2,1.4-5,1.4C50.1,60.9,49.2,60.7,48.3,60.5z"/>
	<circle cx="27" cy="21.9" r="1"/>
	<circle cx="17" cy="21.9" r="1"/>
	<path d="M26,27.9h-2c0,1.1-0.9,2-2,2s-2-0.9-2-2h-2c0,2.2,1.8,4,4,4S26,30.1,26,27.9z"/>
	<rect x="25" y="49.9" width="2" height="2"/>
	<rect x="29" y="49.9" width="2" height="2"/>
</g>
</svg>
