<svg width="31" height="32" viewBox="0 0 31 32" fill="none" xmlns="http://www.w3.org/2000/svg">
  <path d="M21.6593 2.66667H8.91853C5.40027 2.66667 2.54816 5.65144 2.54816 9.33334V22.6667C2.54816 26.3486 5.40027 29.3333 8.91853 29.3333H21.6593C25.1775 29.3333 28.0296 26.3486 28.0296 22.6667V9.33334C28.0296 5.65144 25.1775 2.66667 21.6593 2.66667Z"
  stroke="#C4C4C4" strokeWidth="2" strokeLinecap="round" strokeLinejoin="round"/>
  <path d="M20.3852 15.16C20.5424 16.2697 20.3613 17.403 19.8676 18.3987C19.3739 19.3944 18.5928 20.2019 17.6353 20.7062C16.6778 21.2106 15.5927 21.3861 14.5344 21.2079C13.476 21.0297 12.4984 20.5068 11.7404 19.7136C10.9824 18.9203 10.4827 17.8972 10.3124 16.7896C10.1421 15.6821 10.3099 14.5465 10.7918 13.5445C11.2738 12.5425 12.0453 11.725 12.9968 11.2083C13.9483 10.6917 15.0312 10.5021 16.0916 10.6667C17.1731 10.8345 18.1745 11.362 18.9476 12.1711C19.7208 12.9802 20.2248 14.0281 20.3852 15.16Z"
  stroke="#C4C4C4" strokeWidth="2" strokeLinecap="round" strokeLinejoin="round"/>
  <path d="M22.2963 8.66667H22.309" stroke="#C4C4C4" strokeWidth="2" strokeLinecap="round" strokeLinejoin="round"/>
</svg>