<svg width="31" height="32" viewBox="0 0 31 32" fill="none" xmlns="http://www.w3.org/2000/svg">
  <path d="M26.7556 15.3333C26.7599 17.0932 26.3671 18.8292 25.6089 20.4C24.7099 22.2823 23.328 23.8656 21.6178 24.9724C19.9076 26.0792 17.9367 26.6659 15.9259 26.6667C14.2443 26.6713 12.5855 26.2601 11.0844 25.4667L3.82222 28L6.24296 20.4C5.4848 18.8292 5.09191 17.0932 5.0963 15.3333C5.09708 13.229 5.65767 11.1665 6.71529 9.37674C7.77291 7.58701 9.28578 6.14076 11.0844 5.20001C12.5855 4.40658 14.2443 3.99542 15.9259 4.00001H16.563C19.2186 4.15333 21.7268 5.32636 23.6075 7.29449C25.4882 9.26262 26.609 11.8875 26.7556 14.6667V15.3333Z"
  stroke="#C4C4C4" strokeWidth="2" strokeLinecap="round" strokeLinejoin="round"/>
</svg>