<svg width="31" height="32" viewBox="0 0 31 32" fill="none" xmlns="http://www.w3.org/2000/svg">
  <path d="M26.7556 13.3333C26.7556 22.6667 15.2889 30.6667 15.2889 30.6667C15.2889 30.6667 3.82222 22.6667 3.82222 13.3333C3.82222 10.1507 5.03031 7.09848 7.18073 4.84805C9.33115 2.59761 12.2477 1.33333 15.2889 1.33333C18.33 1.33333 21.2466 2.59761 23.397 4.84805C25.5475 7.09848 26.7556 10.1507 26.7556 13.3333Z"
  stroke="#C4C4C4" strokeWidth="2" strokeLinecap="round" strokeLinejoin="round"/>
  <path d="M15.2889 17.3333C17.3998 17.3333 19.1111 15.5425 19.1111 13.3333C19.1111 11.1242 17.3998 9.33333 15.2889 9.33333C13.1779 9.33333 11.4667 11.1242 11.4667 13.3333C11.4667 15.5425 13.1779 17.3333 15.2889 17.3333Z"
  stroke="#C4C4C4" strokeWidth="2" strokeLinecap="round" strokeLinejoin="round"/>
</svg>