<svg width="54" height="32" viewBox="0 0 54 32" fill="none" xmlns="http://www.w3.org/2000/svg">
  <path d="M35 28.5931V26.3218C35 25.117 34.5786 23.9616 33.8284 23.1097C33.0783 22.2578 32.0609 21.7792 31 21.7792H23C21.9391 21.7792 20.9217 22.2578 20.1716 23.1097C19.4214 23.9616 19 25.117 19 26.3218V28.5931"
  stroke="black" strokeWidth="2" strokeLinecap="round" strokeLinejoin="round"/>
  <path d="M27 17.2366C29.2091 17.2366 31 15.2028 31 12.694C31 10.1852 29.2091 8.15143 27 8.15143C24.7909 8.15143 23 10.1852 23 12.694C23 15.2028 24.7909 17.2366 27 17.2366Z"
  stroke="black" strokeWidth="2" strokeLinecap="round" strokeLinejoin="round"/>
  <path d="M50 22.7886V20.6183C50 19.4671 49.5786 18.363 48.8284 17.549C48.0783 16.7349 47.0609 16.2776 46 16.2776H38C36.9391 16.2776 35.9217 16.7349 35.1716 17.549C34.4214 18.363 34 19.4671 34 20.6183V22.7886"
  stroke="black" strokeWidth="2" strokeLinecap="round" strokeLinejoin="round"/>
  <path d="M42 11.9369C44.2091 11.9369 46 9.99352 46 7.59622C46 5.19892 44.2091 3.25552 42 3.25552C39.7909 3.25552 38 5.19892 38 7.59622C38 9.99352 39.7909 11.9369 42 11.9369Z"
  stroke="black" strokeWidth="2" strokeLinecap="round" strokeLinejoin="round"/>
  <path d="M20 22.7886V20.6183C20 19.4671 19.5786 18.363 18.8284 17.549C18.0783 16.7349 17.0609 16.2776 16 16.2776H8C6.93913 16.2776 5.92172 16.7349 5.17157 17.549C4.42143 18.363 4 19.4671 4 20.6183V22.7886"
  stroke="black" strokeWidth="2" strokeLinecap="round" strokeLinejoin="round"/>
  <path d="M12 11.9369C14.2091 11.9369 16 9.99352 16 7.59622C16 5.19892 14.2091 3.25552 12 3.25552C9.79086 3.25552 8 5.19892 8 7.59622C8 9.99352 9.79086 11.9369 12 11.9369Z"
  stroke="black" strokeWidth="2" strokeLinecap="round" strokeLinejoin="round"/>
</svg>